<?xml version="1.0" encoding="UTF-8" standalone="no"?>
<!-- Created with Inkscape (http://www.inkscape.org/) -->

<svg
   width="1000mm"
   height="1000mm"
   viewBox="0 0 1000 1000"
   version="1.1"
   id="svg5"
   inkscape:version="1.2.1 (9c6d41e410, 2022-07-14, custom)"
   sodipodi:docname="icon.svg"
   xmlns:inkscape="http://www.inkscape.org/namespaces/inkscape"
   xmlns:sodipodi="http://sodipodi.sourceforge.net/DTD/sodipodi-0.dtd"
   xmlns="http://www.w3.org/2000/svg"
   xmlns:svg="http://www.w3.org/2000/svg">
  <sodipodi:namedview
     id="namedview7"
     pagecolor="#ffffff"
     bordercolor="#666666"
     borderopacity="1.0"
     inkscape:showpageshadow="2"
     inkscape:pageopacity="0.0"
     inkscape:pagecheckerboard="0"
     inkscape:deskcolor="#d1d1d1"
     inkscape:document-units="mm"
     showgrid="false"
     inkscape:zoom="0.16295423"
     inkscape:cx="978.80245"
     inkscape:cy="2101.8172"
     inkscape:window-width="1920"
     inkscape:window-height="1080"
     inkscape:window-x="0"
     inkscape:window-y="0"
     inkscape:window-maximized="1"
     inkscape:current-layer="layer1" />
  <defs
     id="defs2" />
  <g
     inkscape:label="Layer 1"
     inkscape:groupmode="layer"
     id="layer1">
    <path
       id="path3621"
       style="display:none;fill:#0020de;fill-opacity:1;stroke:#0100f6;stroke-width:0.264583;stroke-opacity:1"
       d="m 587.68919,231.82616 c -11.58533,-0.1334 -23.17902,0.10528 -34.74258,0.45217 -29.8319,1.15332 -59.66186,2.95199 -89.26432,6.97528 -30.32931,3.77704 -60.61128,7.84883 -90.76758,12.84935 -29.93192,4.89617 -59.97808,9.3582 -89.56198,16.11943 -24.6943,6.48424 -49.19009,13.8913 -72.60487,24.18353 -8.76467,4.06588 -10.28811,4.64201 -18.74253,9.07025 -14.55335,7.62277 -28.59638,16.1893 -42.67853,24.63881 -13.93572,8.4721 -27.66128,17.2992 -40.43732,27.47274 -8.46374,6.93273 -16.857558,14.03604 -24.268289,22.11079 l 15.756149,-6.65437 c 7.01421,-7.89355 15.14908,-14.72231 23.29263,-21.40851 12.80074,-10.17134 26.62829,-18.86887 40.60786,-27.29549 3.29298,-2.27978 6.88917,-4.07937 10.33063,-6.12263 1.72803,-0.97071 3.44032,-1.97149 5.18987,-2.90215 8.88247,-4.72489 9.67767,-4.96297 18.87481,-9.30227 23.39885,-10.59296 47.97186,-18.10025 72.7537,-24.64759 29.63019,-7.10789 59.78386,-11.65937 89.84155,-16.51062 30.12331,-4.93277 60.34256,-9.1551 90.64304,-12.82713 29.58927,-4.01257 59.37266,-5.93741 89.19146,-7.07502 22.99892,-0.7304 46.08609,-0.90103 69.00922,1.42524 4.09569,0.41564 8.17183,1.00735 12.25765,1.51102 22.63667,3.26515 44.69961,9.52834 66.3143,16.87132 12.55285,4.31896 24.64336,9.85285 35.82417,17.03617 6.88529,4.42362 10.65022,7.46921 17.20825,12.42456 19.56679,15.28177 35.39015,33.86459 50.89095,53.08049 8.62994,11.51829 17.36388,23.06414 24.8698,35.36786 5.01232,8.21614 5.66757,9.9873 9.97252,18.61024 10.9421,23.24317 17.1345,48.27518 22.91747,73.18933 5.06406,23.85472 8.60075,48.08175 10.22831,72.42297 0.30803,4.60699 0.44818,9.22398 0.67231,13.83585 0.47381,22.70292 -2.39253,45.46329 -9.21184,67.15714 -1.26754,4.0324 -2.82604,7.96743 -4.23902,11.9512 -6.28696,15.39286 -14.37133,30.01395 -24.0347,43.54412 -6.06949,8.49823 -8.09521,10.57597 -14.8022,18.52548 -15.58059,17.57696 -33.70775,32.6191 -51.77204,47.5387 -6.97946,5.56035 -8.80761,7.23614 -16.19022,12.24422 -2.06525,1.40096 -4.20013,2.69699 -6.30556,4.03696 -2.71503,1.37919 -5.38638,2.84538 -8.08323,4.26072 -3.48834,1.6469 -6.97666,3.29387 -10.46499,4.94078 -18.17971,8.07297 -37.11174,14.41303 -56.40069,19.24947 -11.56627,2.90007 -19.95233,4.4539 -31.6513,6.81974 -36.95608,6.33897 -74.39205,9.27813 -111.79163,11.44633 -23.15778,1.19657 -46.34864,1.45174 -69.5327,1.49087 -13.43085,0.13671 -26.91371,-0.18361 -40.19238,-2.38849 -2.36805,-0.39319 -4.71299,-0.91608 -7.06934,-1.37407 -12.95208,-2.77577 -25.44232,-7.31444 -37.34242,-13.08603 -8.5758,-4.09873 -14.20867,-9.94345 -19.47943,-17.67799 -5.43629,-8.27459 -8.77947,-17.54375 -11.32644,-27.04382 -1.47804,-6.76032 -2.49147,-13.68112 -2.68615,-20.6096 -0.13189,-4.69409 0.13037,-6.89304 0.44546,-11.60394 0.89338,-11.70751 2.86857,-23.27934 4.87928,-34.83405 1.82499,-11.30646 4.96294,-22.34546 8.46977,-33.23001 3.21083,-10.09803 7.74354,-19.68974 12.30313,-29.22974 4.64507,-9.34142 9.31143,-18.68679 14.51591,-27.73164 6.10684,-10.02431 13.49683,-19.2019 21.03179,-28.17658 6.96895,-8.38205 14.92466,-15.83224 22.61671,-23.52621 7.60586,-8.0048 15.87011,-15.31272 24.36802,-22.34386 8.70613,-6.9244 17.58979,-13.56839 26.86864,-19.70422 8.64147,-6.09156 17.5922,-11.70363 26.66814,-17.11679 4.16695,-2.80113 8.80966,-5.04375 12.62662,-8.34109 0.32692,-0.33396 0.65338,-0.66805 0.9803,-1.00201 l -15.82797,6.49212 c -0.34692,0.29471 -0.69388,0.58946 -1.04077,0.88418 -3.90942,2.86343 -8.05677,5.38277 -12.17858,7.92406 -8.98389,5.42787 -17.81218,11.09861 -26.42319,17.10439 -9.27502,6.22445 -18.20391,12.91571 -26.91412,19.90989 -8.453,7.07804 -16.59709,14.50954 -24.24969,22.45444 -7.73299,7.68419 -15.62772,15.23355 -22.56244,23.67039 -7.48075,9.10465 -14.84578,18.3889 -20.9827,28.467 -5.148,9.08805 -9.77576,18.45979 -14.41566,27.81484 -4.6053,9.56058 -9.01039,19.24333 -12.14861,29.40337 -3.51433,10.93954 -6.52141,22.05024 -8.33024,33.41295 -2.04139,11.5976 -3.98815,23.23327 -4.80746,34.99373 -0.30197,4.67727 -0.57405,7.17765 -0.44338,11.84786 0.19676,7.03251 1.25365,14.05778 2.81584,20.90518 2.63681,9.66115 5.96648,19.14447 11.47372,27.5916 5.31034,7.80806 11.32115,14.34425 20.06958,18.34203 12.15389,5.60241 24.7771,10.30687 37.86177,13.22038 6.52594,1.28971 7.96026,1.69984 14.63063,2.49856 10.99216,1.31623 22.07485,1.47609 33.1308,1.29501 23.55381,-0.19868 47.10738,-0.69903 70.62101,-2.18385 37.40897,-2.3673 74.793,-5.70341 111.87534,-11.26184 11.77612,-2.3431 20.00204,-3.84352 31.65181,-6.70192 19.09833,-4.686 37.85911,-10.81382 55.93871,-18.55959 3.47869,-1.61158 6.99156,-3.15147 10.43605,-4.83485 20.16089,-9.85289 39.61438,-21.51099 56.85183,-35.92442 17.95665,-15.00953 36.05104,-30.06221 51.50125,-47.72525 6.41109,-7.71066 8.93551,-10.43109 14.72727,-18.67535 9.5791,-13.63533 17.46027,-28.40131 23.73808,-43.8273 1.37713,-4.00583 2.89578,-7.9662 4.13153,-12.01787 6.6683,-21.86347 9.30811,-44.70391 8.87491,-67.51939 -0.25654,-4.61379 -0.43937,-9.23247 -0.76997,-13.84153 -1.74979,-24.39578 -5.37069,-48.65288 -10.34718,-72.5904 -5.59945,-25.12674 -11.72536,-50.33512 -22.48958,-73.83787 -3.71324,-7.45834 -5.62888,-11.70707 -9.9658,-18.82418 -7.52979,-12.35679 -16.61955,-23.75579 -25.30853,-35.28932 -15.58051,-19.07754 -31.51593,-38.08945 -50.85168,-53.5311 -6.52499,-5.01977 -10.32886,-8.15597 -17.20463,-12.6292 -11.2143,-7.29582 -23.32284,-13.0881 -36.01279,-17.31574 -21.80948,-7.22916 -44.03728,-13.55623 -66.80729,-16.90233 -4.11047,-0.51522 -8.20906,-1.13746 -12.33155,-1.54564 -11.5298,-1.1416 -23.10713,-1.64686 -34.69246,-1.78025 z m -53.85252,216.04418 c -1.81936,0.004 -3.7308,0.2679 -4.86741,0.15658 -7.82584,0.13914 -15.65416,0.31984 -23.46213,0.9033 -8.41014,0.6995 -16.78737,1.69408 -25.19071,2.45877 l -13.8281,10.04641 c 8.58347,-0.87011 17.13832,-1.96069 25.73693,-2.68459 7.70547,-0.60301 15.4351,-0.78614 23.16138,-0.83096 1.30296,0.27299 7.41382,-0.61256 8.28787,0.55449 0.18169,0.24257 0.15408,0.58637 0.23099,0.87953 -0.0511,0.74832 -0.0239,1.50606 -0.15348,2.24483 -0.54086,3.08159 -1.8136,6.91517 -2.79828,9.73377 -3.52372,10.08654 -7.86628,18.29195 -12.87518,27.70684 -7.42094,12.74938 -3.73129,6.62773 -11.03447,18.38595 l 14.23221,-6.29729 c 6.98462,-11.70803 3.41813,-5.60633 10.6748,-18.31877 5.07013,-9.42276 9.90872,-18.33792 13.69012,-28.36985 1.07815,-2.86031 2.70447,-7.22881 3.18998,-10.45362 0.14428,-0.95843 0.0256,-1.93818 0.0382,-2.90732 -0.23908,-0.6028 -0.35602,-1.26978 -0.71675,-1.80868 -0.76905,-1.14896 -2.49665,-1.40371 -4.31601,-1.39939 z"
       inkscape:label="swirl-path-29" />
    <path
       id="path4519"
       style="display:none;fill:#0020de;fill-opacity:1;stroke:#0100f6;stroke-width:0.264583;stroke-opacity:1"
       d="m 453.53356,242.95003 c -12.93811,-0.12775 -25.88588,0.35097 -38.80952,0.77101 -17.08929,0.86072 -34.13203,2.35854 -51.03048,5.12217 -16.58788,2.55166 -33.24138,4.69113 -49.7799,7.54166 -14.69913,2.66889 -29.43378,5.14285 -44.07845,8.10441 -12.95044,2.63256 -25.78872,5.74675 -38.44985,9.54929 -9.06305,2.7156 -17.94909,5.93189 -26.85418,9.12037 -7.03301,2.60681 -13.96709,5.44055 -20.87727,8.35557 -10.15134,3.62439 -20.40932,6.94134 -30.49478,10.74663 -8.68035,3.57406 -17.17721,7.50002 -25.55917,11.72073 l -20.26233,16.22226 c 8.60185,-4.54969 17.3722,-8.72418 26.31674,-12.55117 9.83575,-4.02364 20.00814,-7.12733 30.04778,-10.58747 6.995,-2.64204 13.87109,-5.57975 20.85196,-8.26099 8.96829,-3.30565 17.94088,-6.59453 27.05571,-9.47539 12.72321,-4.03894 25.67079,-7.24903 38.7165,-10.04331 14.67337,-3.01217 29.43158,-5.57309 44.16785,-8.2517 16.55996,-2.97478 33.2375,-5.2542 49.88068,-7.70909 16.98109,-2.60967 34.03922,-4.40874 51.17982,-5.50819 17.24399,-0.7291 34.53323,-1.46195 51.79167,-0.69711 3.33892,0.14798 6.67041,0.43345 10.00559,0.65009 12.91894,1.0862 25.73916,3.21404 38.23849,6.67556 5.63991,1.56189 12.99585,4.00053 18.54047,5.78879 18.72775,6.48937 36.98298,14.26468 55.14444,22.17849 14.64998,6.94592 29.23283,14.15463 43.13432,22.52524 10.53364,6.3427 13.16079,8.36653 23.49675,15.43317 13.43323,9.66884 26.48071,20.05776 37.60029,32.38045 5.17893,5.73929 6.80154,8.21369 11.36985,14.35003 10.05185,15.19426 17.11916,32.16791 22.72058,49.44918 1.29645,3.99978 2.4047,8.05804 3.60701,12.08712 1.01394,4.01268 2.08913,8.01032 3.04168,12.03802 2.42377,10.24879 3.65778,16.22243 5.24206,26.67331 2.01111,13.26664 3.03629,26.58885 3.96151,39.96345 0.71929,17.30442 -0.31796,34.65793 -3.89227,51.62734 -2.34519,11.13402 -3.92448,15.36965 -7.27294,26.21907 -1.67494,4.52893 -3.17844,9.12507 -5.02501,13.58677 -4.24948,10.26757 -9.08115,19.66689 -14.45132,29.3982 -5.38299,9.75454 -11.97231,20.79858 -18.18287,30.04623 -3.43009,5.10747 -7.11717,10.03721 -10.67583,15.05593 -19.09062,25.8137 -40.63096,50.0248 -65.97117,69.88824 -4.91323,3.85133 -10.09442,7.3477 -15.14171,11.02155 -5.28294,3.29387 -10.48181,6.72721 -15.84916,9.88157 -0.80973,0.47588 3.01574,-2.1782 2.14457,-1.82728 -5.74614,2.3146 -11.16539,5.38367 -16.88424,7.7649 -13.33073,5.5506 -22.88398,8.57806 -37.1383,11.73417 -7.12563,1.57771 -14.363,2.60068 -21.54442,3.90105 -31.88964,4.33864 -64.14782,6.41738 -96.33676,5.62085 -20.95675,-0.51859 -25.91035,-1.36638 -46.53463,-3.36827 -18.93152,-2.43242 -37.72688,-6.0114 -56.07048,-11.32386 -8.13503,-2.35596 -16.44738,-5.16482 -24.14323,-8.76484 -3.08265,-1.44201 -5.99624,-3.22118 -8.99428,-4.83175 -11.30013,-6.80486 -20.35959,-16.40592 -26.92704,-27.81328 -1.28292,-2.22838 -2.38581,-4.5558 -3.57859,-6.8337 -6.21506,-13.83105 -9.94203,-28.5914 -12.38787,-43.50793 -1.24791,-9.51735 -2.06556,-19.22477 -1.01596,-28.80858 0.20013,-1.82739 0.53708,-3.63691 0.80563,-5.45548 2.36142,-13.24411 8.10033,-25.51066 14.5619,-37.19515 7.60586,-13.51044 17.46495,-25.4409 27.93318,-36.79414 12.33284,-13.17702 25.86607,-25.14599 39.71541,-36.68975 14.31293,-11.72079 29.39881,-22.43136 44.7306,-32.76492 6.45073,-4.44969 13.12149,-8.56206 19.83135,-12.6075 8.94345,-4.69867 18.27522,-8.60882 27.65051,-12.3548 6.35607,-2.41173 12.57609,-5.16074 18.86086,-7.74837 2.89145,-1.18966 1.46197,-0.58285 4.28966,-1.81952 l 20.23029,-16.05174 c -2.81636,1.31159 -1.38869,0.6617 -4.28294,1.94821 -6.50742,2.57127 -12.79386,5.66976 -19.34507,8.13387 -10.65955,4.30966 -21.34702,8.63257 -31.48129,14.09629 -19.61521,11.28595 -39.48348,22.26207 -58.10498,35.1715 -15.25553,10.44839 -30.34384,21.16228 -44.59159,32.96801 -13.85508,11.64012 -27.34144,23.74887 -39.67561,37.01376 -10.58107,11.57451 -20.58838,23.72917 -28.15798,37.54138 -6.41166,12.02748 -12.10419,24.65857 -14.52211,38.15943 -0.24365,1.87597 -0.55741,3.74379 -0.7307,5.62756 -0.8952,9.73102 0.0403,19.58598 1.53789,29.20236 2.86315,15.05419 6.94831,29.88623 13.03951,43.98129 1.18686,2.3704 2.25383,4.80469 3.56051,7.11119 6.74139,11.89957 16.49339,21.61362 28.32695,28.42773 3.17244,1.59077 6.26266,3.35836 9.51777,4.77231 8.67817,3.76962 16.13575,5.94228 25.37158,8.29459 18.94756,4.82578 38.25036,8.14594 57.63782,10.6009 19.61169,1.81936 27.04591,2.83536 46.89998,3.33727 32.0562,0.81037 64.19856,-1.24291 96.02308,-4.95681 15.97988,-2.648 25.47729,-3.67097 40.88949,-8.31422 5.92137,-1.78396 11.69874,-4.0336 17.42736,-6.36343 23.72355,-9.64845 45.68632,-23.06258 67.12459,-36.95124 5.0041,-3.71074 10.14432,-7.24462 15.012,-11.13265 25.21636,-20.14136 46.73575,-44.54403 65.86833,-70.41896 3.61976,-5.0878 7.3806,-10.07839 10.85929,-15.26367 5.92105,-8.82585 13.10422,-20.97054 18.26348,-30.26275 5.44182,-9.80103 10.58288,-19.60494 14.94741,-29.93977 1.91667,-4.53848 3.47657,-9.21984 5.21467,-13.82965 3.37744,-11.2306 4.76536,-14.95754 7.15305,-26.47074 3.56019,-17.16686 4.8723,-34.64547 3.70004,-52.14875 -0.31424,-4.46804 -0.55734,-8.94135 -0.94258,-13.40383 -1.91537,-22.18638 -5.50528,-44.31714 -11.36055,-65.80994 -1.20963,-4.06419 -2.33377,-8.15476 -3.62872,-12.19254 -2.66446,-8.30796 -5.2978,-15.30352 -8.53178,-23.39288 -2.79388,-6.98857 -5.23795,-13.182 -8.92762,-19.70268 -1.45608,-2.57326 -3.19235,-4.97782 -4.78834,-7.46673 -4.93529,-6.4849 -6.1589,-8.46673 -11.87524,-14.42754 -11.64343,-12.1414 -25.26416,-22.2051 -38.77283,-32.12982 -7.86306,-5.6194 -14.88532,-10.83516 -23.07456,-15.94115 -13.77964,-8.59151 -28.57894,-15.43199 -42.96895,-22.89937 -3.30057,-1.56782 -6.57,-3.20313 -9.90172,-4.70359 -14.74655,-6.64117 -29.93631,-12.34354 -45.12541,-17.86713 -6.25803,-2.08651 -12.22808,-4.1586 -18.57665,-5.95467 -12.61044,-3.56763 -25.53301,-5.85205 -38.58989,-6.96599 -3.37863,-0.22332 -6.75354,-0.51167 -10.13582,-0.67024 -4.30921,-0.20204 -8.62087,-0.31192 -12.93357,-0.3545 z m 46.58217,185.89718 c -1.07906,0.0112 -2.17439,0.12267 -3.11351,0.0786 -3.02088,-0.0151 -6.03413,0.0629 -9.02425,0.54932 -5.70942,0.68106 -11.41898,1.03661 -17.17053,1.13223 -7.94228,0.37891 -15.87778,0.98663 -23.83576,0.83354 -10.17988,0.0532 -20.35957,0.0316 -30.53922,0.1173 -7.41158,0.0892 -14.82389,0.17999 -22.23172,0.44339 l -20.97081,15.65951 c 7.57403,-1.0778 15.25791,-1.14357 22.89473,-1.29811 10.1729,-0.1714 20.34663,-0.19444 30.52062,-0.15245 7.88642,0.25326 15.75867,-0.17207 23.63266,-0.5395 5.64647,-0.19365 11.28687,-0.29932 16.91835,-0.77205 2.9352,-0.28348 5.87103,-0.52864 8.81703,-0.65939 1.68548,-0.0124 3.37606,-0.11162 5.06119,-0.0155 0.53684,0.0307 1.09295,0.10406 1.09451,0.18862 0.003,0.13954 -0.13056,0.24668 -0.19586,0.37 -2.02426,4.50403 -4.65801,8.64805 -7.39644,12.74031 -4.74704,7.17028 -9.9532,13.98617 -15.5205,20.53363 -4.89413,5.57523 -9.73633,11.19083 -14.80892,16.6057 -3.86746,4.21261 -7.61326,8.49373 -11.26546,12.89327 -1.93943,2.81432 -4.19005,5.42298 -6.02496,8.30286 -0.28881,1.01731 -1.04685,1.72154 -1.43402,2.68872 -0.11866,0.29642 -0.15059,0.62609 -0.29145,0.91261 -0.1096,0.22286 -0.29975,0.39572 -0.44959,0.59376 -0.11779,0.24826 -0.23567,0.49692 -0.35346,0.74517 -0.45855,1.43124 -1.50889,2.55144 -2.43551,3.72381 -0.3347,1.08788 -0.97427,1.94368 -1.46658,2.94555 l 23.94531,-10.72958 c 0.53814,-0.88616 0.87083,-1.87833 1.61592,-2.63239 0.88578,-1.30329 1.63262,-2.6487 2.25878,-4.09484 0.85497,-1.52931 1.49881,-3.18655 2.55643,-4.60696 1.92585,-2.65615 3.74482,-5.39336 5.8105,-7.9468 3.55353,-4.3413 7.33765,-8.47638 11.08253,-12.65246 4.96723,-5.40082 9.682,-11.0163 14.44976,-16.59278 5.5628,-6.73311 10.83033,-13.69131 15.7241,-20.92896 2.29018,-3.47191 5.96231,-8.67974 6.93912,-12.74186 0.15679,-0.65203 0.12642,-1.33532 0.18965,-2.00297 -0.17605,-0.5752 -0.24882,-1.19324 -0.52813,-1.726 -0.90372,-1.72377 -2.65609,-1.98385 -4.45451,-1.96525 z"
       inkscape:label="swirl-path-45" />
    <path
       id="path4553"
       style="display:none;fill:#0020de;fill-opacity:1;stroke:#0100f6;stroke-width:0.309572;stroke-opacity:1"
       d="m 483.34104,211.62791 c -42.0704,0.21269 -84.16,0.41404 -126.18661,2.53938 -21.90065,1.26791 -43.79999,2.43718 -65.56706,5.28598 -12.54568,1.64192 -23.72473,3.66171 -36.07273,6.26215 -5.7044,1.20133 -11.37013,2.5759 -17.05529,3.86385 -14.55831,3.85383 -19.29958,4.91038 -33.76487,9.55497 -22.76414,7.30923 -45.07287,16.00067 -67.23104,24.92768 -11.55101,4.81086 -18.55674,7.65796 -29.89275,12.64729 -4.25473,1.87264 -8.581331,3.60491 -12.710847,5.73608 -11.789346,6.08426 -23.381945,12.53703 -35.022152,18.89807 -5.697448,3.11348 -5.995248,3.43923 -10.697021,6.59805 l 24.638806,-9.80147 c -0.290491,0.46657 -0.528536,0.97148 -0.675411,1.54306 -1.205346,4.6907 8.79255,-4.18858 13.225032,-6.20531 11.335039,-5.15727 18.871233,-8.27055 30.428633,-13.18214 22.19803,-9.05131 44.54209,-17.87501 67.36953,-25.26305 14.83125,-4.8001 18.51559,-5.56844 33.41708,-9.52242 24.41958,-6.11911 49.24516,-10.5972 74.28488,-13.29686 18.77732,-2.02449 26.48409,-2.28471 45.34813,-3.45199 41.7497,-2.06391 83.56269,-2.13248 125.35307,-2.11408 27.91885,0.44988 55.94443,0.98996 83.72461,4.06073 5.01912,0.55482 10.01559,1.29613 15.02337,1.94407 22.86292,3.4553 45.18786,9.82044 66.66932,18.28364 4.28529,1.68831 8.48395,3.58645 12.72584,5.37951 14.73881,6.99062 28.8412,15.42928 41.70649,25.44806 7.35998,5.73157 11.07157,9.38376 17.92346,15.66313 17.86873,17.33206 33.21047,36.94761 47.49271,57.23062 8.43521,12.72478 16.59782,25.69317 23.08437,39.52781 3.72182,7.93797 5.4652,12.87399 8.60103,21.00337 4.6433,13.48751 9.12948,27.06133 12.04578,41.03833 1.93656,9.28131 2.1759,12.29344 3.46904,21.76094 2.88818,26.03778 3.62931,52.22056 3.95686,78.39108 0.19219,20.26785 -1.15775,40.54194 -4.6023,60.53274 -0.78522,4.55708 -1.7839,9.07546 -2.67581,13.61312 -5.29981,23.53591 -12.8123,46.60254 -23.03425,68.50022 -2.12878,4.56036 -4.47999,9.01512 -6.72,13.52268 -9.19505,17.321 -19.10035,34.43177 -31.35313,49.83727 -7.32711,9.21239 -10.213,11.74984 -18.43763,20.19464 -13.03691,12.2859 -27.07469,23.51816 -41.98556,33.48426 -0.71728,0.47941 -1.85562,1.15791 -3.02823,1.85105 -20.36447,10.3665 -42.02316,17.78377 -63.99093,24.02799 -25.38627,7.17355 -51.77521,8.98038 -77.99782,10.35027 -31.27523,1.77578 -62.56458,0.23121 -93.73847,-2.33836 -20.93279,-2.13237 -41.97322,-5.02001 -62.1037,-11.33729 -3.82097,-1.19907 -7.56056,-2.64005 -11.34091,-3.95997 -15.78712,-6.55903 -31.20022,-14.82332 -43.56168,-26.77717 -2.19332,-2.12099 -4.16833,-4.45428 -6.25233,-6.68125 -14.45349,-17.46721 -22.82013,-38.58923 -30.06432,-59.75656 -4.19975,-13.73219 -8.0931,-27.71171 -9.46454,-42.05273 -0.73903,-7.72811 -0.46049,-10.8674 -0.30437,-18.52135 0.80811,-10.89763 2.683,-21.77663 6.68331,-32.00011 2.24117,-5.72767 4.71529,-10.26381 7.50187,-15.75976 9.18092,-16.75959 19.72221,-32.69275 31.32264,-47.88442 10.13613,-13.38 20.53521,-26.55119 31.41927,-39.3392 10.53946,-12.90746 22.0113,-24.98756 33.62843,-36.93108 13.21661,-13.14291 27.46971,-25.18772 42.2491,-36.54919 10.49386,-7.50381 21.29813,-14.59662 32.40216,-21.18372 8.60797,-4.91364 17.25622,-9.84689 25.7638,-14.91434 l -27.17095,10.40557 c -6.59776,3.7754 -13.19536,7.55097 -19.7931,11.32644 -13.01528,7.69131 -25.69257,15.97661 -37.84989,24.94938 -14.70148,11.52458 -28.77424,23.81549 -42.08529,36.90938 -11.68245,11.98128 -23.04707,24.25489 -33.68321,37.17086 -10.7574,12.79337 -21.063,25.93488 -31.02757,39.34747 -11.45848,15.4246 -22.06039,31.46164 -31.18311,48.37224 -3.1958,6.35635 -5.06258,9.62447 -7.53184,16.23466 -3.91215,10.47263 -5.59244,21.58234 -6.10402,32.70085 0.0395,7.7952 -0.15344,10.91197 0.76275,18.7725 1.67907,14.40567 5.75123,28.48934 10.16475,42.26047 7.47283,21.45942 15.71268,43.08458 29.99507,61.11461 2.10919,2.34472 4.06504,4.83462 6.32726,7.0342 2.15087,2.09135 4.51322,3.96211 6.88072,5.80843 11.49281,8.96292 24.52733,15.78166 37.97546,21.35529 3.79289,1.39582 7.52926,2.95331 11.37863,4.18734 20.35918,6.52666 41.80819,9.19443 62.99357,11.35951 31.24761,2.309 62.60015,3.75401 93.93742,2.6169 26.06763,-1.14766 52.38943,-2.63023 77.71051,-9.35344 24.02532,-6.73812 47.70076,-14.84079 69.84069,-26.448 11.71738,-6.64532 23.53798,-13.11447 35.15238,-19.93573 3.37409,-1.98166 6.57079,-4.24899 9.79527,-6.46266 14.75385,-10.12898 28.66713,-21.45189 41.5339,-33.86408 8.18525,-8.5841 11.09015,-11.17758 18.31878,-20.55172 11.99655,-15.55723 21.52183,-32.84633 30.78675,-50.08066 2.25696,-4.56529 4.63399,-9.07381 6.77064,-13.6958 10.20937,-22.08459 17.64945,-45.41728 22.9831,-69.10431 2.20856,-10.9425 3.43077,-16.11201 4.95577,-27.09241 2.19581,-15.81011 2.77698,-31.79489 2.38021,-47.73662 -0.7448,-26.29594 -1.3755,-52.62453 -3.76721,-78.83446 -0.49174,-3.7727 -0.87331,-7.5612 -1.47485,-11.31817 -2.85186,-17.81082 -8.03054,-35.20114 -14.3247,-52.08571 -3.25107,-8.13804 -5.11971,-13.1629 -8.87905,-21.14083 -6.57439,-13.95193 -14.4514,-27.25385 -23.30503,-39.89524 -7.42663,-10.16458 -14.97113,-20.17626 -22.94486,-29.92841 -3.91305,-4.78586 -12.3026,-14.87412 -16.59072,-19.48615 -2.65738,-2.85806 -5.5064,-5.53447 -8.25944,-8.30182 -6.25217,-5.71727 -11.42764,-10.65993 -18.10122,-15.9153 -13.01137,-10.24626 -27.43401,-18.77303 -42.48475,-25.68836 -4.26357,-1.83393 -8.48074,-3.77842 -12.79095,-5.50147 -21.66718,-8.66161 -44.18281,-15.27017 -67.3318,-18.56579 -5.05932,-0.65325 -10.10642,-1.4077 -15.17789,-1.96009 -28.11534,-3.06239 -56.4578,-3.43835 -84.70904,-3.65714 z m -31.24409,235.08384 c 3.487,-1.99534 6.97502,-3.98885 10.46086,-5.9862 1.52306,-0.87267 6.086,-3.50153 4.55941,-2.63498 -5.12246,2.90776 -10.23627,5.83076 -15.35306,8.74831 z m -0.33279,0.12713 -0.6997,0.2682 c -1.86538,1.10776 -7.48635,4.38961 -5.59811,3.32072 2.1027,-1.19031 4.19885,-2.39212 6.29781,-3.58892 z M 87.409652,290.65719 c 0.06923,-0.022 -0.05808,0.0772 -0.441317,0.3328 -0.663334,0.4424 -1.411169,0.82024 -2.190047,1.17409 1.28703,-0.75822 2.488982,-1.46171 2.631364,-1.50689 z M 545.13572,377.4829 c -0.15495,0.002 -0.31018,0.008 -0.46509,0.0207 -1.21891,0.0977 -11.58735,2.38168 -11.80858,2.42621 -11.1208,2.23833 -22.28693,4.22309 -33.36851,6.69313 -16.58696,3.56115 -33.17405,7.12195 -49.77422,10.61021 -10.44222,2.19426 -20.9194,4.19372 -31.34537,6.47712 -2.99258,0.65543 -5.95858,1.44513 -8.93796,2.16783 l -29.12122,24.86515 c 3.33486,-1.20422 6.61936,-2.58722 10.00456,-3.6127 8.94127,-2.70849 24.12625,-6.16538 32.91892,-8.12664 16.3724,-3.65198 32.81721,-6.91855 49.25022,-10.22883 10.55677,-2.17607 21.18787,-3.8583 31.81408,-5.56504 4.66792,-0.74972 9.2293,-1.71251 13.94799,-1.81487 0.35789,0.1708 0.9245,0.11984 1.07383,0.51211 0.4046,1.06245 -2.65326,12.13805 -3.1073,13.74283 -1.96122,6.93161 -3.678,11.83013 -5.95984,18.70532 -7.01391,20.72555 -15.20405,40.97149 -24.4011,60.65986 -4.54259,9.2272 -8.55051,18.74235 -12.85038,28.10113 l 33.29771,-16.43414 c 3.84488,-9.23229 7.60329,-18.51176 11.84476,-27.54199 8.85233,-19.97098 17.16301,-40.24504 24.24503,-61.04123 2.13657,-6.26011 4.43865,-12.85126 6.40219,-19.18798 1.60906,-5.19298 5.10578,-13.25681 2.16421,-18.82572 -0.55351,-1.04788 -1.71264,-1.54343 -2.56883,-2.31511 -1.08497,-0.0779 -2.17046,-0.29971 -3.2551,-0.28732 z"
       inkscape:label="swirl-path-100" />
    <path
       id="path4581"
       style="display:inline;fill:#0020de;fill-opacity:1;stroke:#0100f6;stroke-width:0.309572;stroke-opacity:1"
       d="m 512.10919,196.8844 c -42.0704,0.21269 -84.16,0.41404 -126.18661,2.53938 -21.90065,1.26791 -43.79999,2.43718 -65.56706,5.28598 -12.54568,1.64192 -27.53395,2.77158 -39.91654,5.20197 -14.32455,2.81156 -44.17922,8.68525 -49.86438,9.9732 -14.55831,3.85383 -19.29958,4.91038 -33.76487,9.55497 -22.76414,7.30923 -45.07287,16.00067 -67.23104,24.92768 -11.55101,4.81086 -18.55674,7.65796 -29.892747,12.64729 -4.25473,1.87264 -8.581331,3.60491 -12.710847,5.73608 -11.789346,6.08426 -23.381945,12.53703 -35.022152,18.89807 -5.697448,3.11348 -5.995248,3.43923 -10.697021,6.59805 l 34.406025,-4.8279 c -0.290491,0.46657 -2.411008,5.69225 -2.557883,6.26383 -1.205346,4.6907 8.79255,-4.18858 13.225032,-6.20531 11.335039,-5.15727 18.871233,-8.27055 30.428633,-13.18214 22.19803,-9.05131 44.58986,-17.76006 67.36953,-25.26305 11.00108,-3.62345 18.51559,-5.56844 33.41708,-9.52242 24.41958,-6.11911 49.33085,-10.12199 74.28488,-13.29686 15.03855,-1.91334 26.48409,-2.28471 45.34813,-3.45199 41.7497,-2.06391 83.56269,-2.13248 125.35307,-2.11408 27.91885,0.44988 55.94443,0.98996 83.72461,4.06073 5.01912,0.55482 10.01559,1.29613 15.02337,1.94407 22.86292,3.4553 45.18786,9.82044 66.66932,18.28364 4.28529,1.68831 8.48395,3.58645 12.72584,5.37951 14.73881,6.99062 28.8412,15.42928 41.70649,25.44806 7.35998,5.73157 11.07157,9.38376 17.92346,15.66313 17.86873,17.33206 33.21047,36.94761 47.49271,57.23062 8.43521,12.72478 16.59782,25.69317 23.08437,39.52781 3.72182,7.93797 5.4652,12.87399 8.60103,21.00337 4.6433,13.48751 9.12948,27.06133 12.04578,41.03833 1.93656,9.28131 2.1759,12.29344 3.46904,21.76094 2.88818,26.03778 3.62931,52.22056 3.95686,78.39108 0.19219,20.26785 -1.15775,40.54194 -4.6023,60.53274 -0.78522,4.55708 -1.7839,9.07546 -2.67581,13.61312 -5.29981,23.53591 -12.8123,46.60254 -23.03425,68.50022 -2.12878,4.56036 -4.47999,9.01512 -6.72,13.52268 -9.19505,17.321 -19.10035,34.43177 -31.35313,49.83727 -7.32711,9.21239 -10.213,11.74984 -18.43763,20.19464 -13.03691,12.2859 -27.07469,23.51816 -41.98556,33.48426 -0.71728,0.47941 -1.85562,1.15791 -3.02823,1.85105 -20.36447,10.3665 -42.02316,17.78377 -63.99093,24.02799 -25.38627,7.17355 -51.77521,8.98038 -77.99782,10.35027 -31.27523,1.77578 -62.56458,0.23121 -93.73847,-2.33836 -20.93279,-2.13237 -41.97322,-5.02001 -62.1037,-11.33729 -3.82097,-1.19907 -7.56056,-2.64005 -11.34091,-3.95997 -15.78712,-6.55903 -31.20022,-14.82332 -43.56168,-26.77717 -2.19332,-2.12099 -4.16833,-4.45428 -6.25233,-6.68125 -14.45349,-17.46721 -22.82013,-38.58923 -30.06432,-59.75656 -4.19975,-13.73219 -8.0931,-27.71171 -9.46454,-42.05273 -0.73903,-7.72811 -0.46049,-10.8674 -0.30437,-18.52135 0.80811,-10.89763 2.683,-21.77663 6.68331,-32.00011 2.24117,-5.72767 4.71529,-10.26381 7.50187,-15.75976 9.18092,-16.75959 19.72221,-32.69275 31.32264,-47.88442 10.13613,-13.38 20.53521,-26.55119 31.41927,-39.3392 10.53946,-12.90746 22.0113,-24.98756 33.62843,-36.93108 13.21661,-13.14291 27.46971,-25.18772 42.2491,-36.54919 10.49386,-7.50381 21.29813,-14.59662 32.40216,-21.18372 8.60797,-4.91364 17.25622,-9.84689 25.7638,-14.91434 l -27.17095,10.40557 c -6.59776,3.7754 -13.19536,7.55097 -19.7931,11.32644 -13.01528,7.69131 -25.69257,15.97661 -37.84989,24.94938 -14.70148,11.52458 -28.77424,23.81549 -42.08529,36.90938 -11.68245,11.98128 -23.04707,24.25489 -33.68321,37.17086 -10.7574,12.79337 -21.063,25.93488 -31.02757,39.34747 -11.45848,15.4246 -22.06039,31.46164 -31.18311,48.37224 -3.1958,6.35635 -5.06258,9.62447 -7.53184,16.23466 -3.91215,10.47263 -5.59244,21.58234 -6.10402,32.70085 0.0395,7.7952 -0.15344,10.91197 0.76275,18.7725 1.67907,14.40567 5.75123,28.48934 10.16475,42.26047 7.47283,21.45942 15.71268,43.08458 29.99507,61.11461 2.10919,2.34472 4.06504,4.83462 6.32726,7.0342 2.15087,2.09135 5.44816,6.12422 7.81566,7.97054 11.49281,8.96292 16.06913,13.64641 29.51726,19.22004 3.79289,1.39582 12.39127,5.63718 16.24064,6.87121 20.35918,6.52666 40.30706,14.82536 61.49244,16.99044 31.24761,2.309 72.40882,8.06467 103.74609,6.92756 26.06763,-1.14766 52.38943,-2.63023 77.71051,-9.35344 24.02532,-6.73812 76.46891,-29.58431 98.60884,-41.19152 11.71738,-6.64532 23.53798,-13.11447 35.15238,-19.93573 3.37409,-1.98166 6.57079,-4.24899 9.79527,-6.46266 14.75385,-10.12898 28.66713,-21.45189 41.5339,-33.86408 8.18525,-8.5841 11.09015,-11.17758 18.31878,-20.55172 11.99655,-15.55723 21.52183,-32.84633 30.78675,-50.08066 2.25696,-4.56529 7.44106,-23.30376 9.07966,-28.12487 8.3109,-24.45229 9.69414,-43.64052 15.02779,-67.32755 2.20856,-10.9425 3.43077,-16.11201 4.95577,-27.09241 2.19581,-15.81011 2.77698,-31.79489 2.38021,-47.73662 -0.7448,-26.29594 -1.3755,-52.62453 -3.76721,-78.83446 -0.49174,-3.7727 -0.87331,-7.5612 -1.47485,-11.31817 -2.85186,-17.81082 -8.03054,-35.20114 -14.3247,-52.08571 -3.25107,-8.13804 -5.11971,-13.1629 -8.87905,-21.14083 -6.57439,-13.95193 -14.4514,-27.25385 -23.30503,-39.89524 -7.42663,-10.16458 -14.97113,-20.17626 -22.94486,-29.92841 -3.91305,-4.78586 -12.3026,-14.87412 -16.59072,-19.48615 -2.65738,-2.85806 -5.5064,-5.53447 -8.25944,-8.30182 -6.25217,-5.71727 -11.42764,-10.65993 -18.10122,-15.9153 -13.01137,-10.24626 -27.43401,-18.77303 -42.48475,-25.68836 -4.26357,-1.83393 -8.48074,-3.77842 -12.79095,-5.50147 -21.66718,-8.66161 -44.18281,-15.27017 -67.3318,-18.56579 -5.05932,-0.65325 -10.10642,-1.4077 -15.17789,-1.96009 -28.11534,-3.06239 -56.4578,-3.43835 -84.70904,-3.65714 z m -60.01224,249.82735 c 3.487,-1.99534 6.97502,-3.98885 10.46086,-5.9862 1.52306,-0.87267 6.086,-3.50153 4.55941,-2.63498 -5.12246,2.90776 -10.23627,5.83076 -15.35306,8.74831 z m -0.33279,0.12713 -0.6997,0.2682 c -1.86538,1.10776 -7.48635,4.38961 -5.59811,3.32072 2.1027,-1.19031 4.19885,-2.39212 6.29781,-3.58892 z M 87.409652,290.65719 c 0.06923,-0.022 -0.05808,0.0772 -0.441317,0.3328 -0.663334,0.4424 -1.411169,0.82024 -2.190047,1.17409 1.28703,-0.75822 2.488982,-1.46171 2.631364,-1.50689 z m 470.379718,76.4497 c 0,-0.15496 -0.31018,0.008 -0.46509,0.0207 -1.21891,0.0977 -11.58735,2.38168 -11.80858,2.42621 -11.1208,2.23833 -22.28693,4.22309 -33.36851,6.69313 -16.58696,3.56115 -33.17405,7.12195 -49.77422,10.61021 -10.44222,2.19426 -36.23961,10.24748 -46.66558,12.53088 -2.99258,0.65543 -18.61223,11.82114 -21.59161,12.54384 l -29.12122,24.86515 c 3.33486,-1.20422 21.93957,-8.64098 25.32477,-9.66646 8.94127,-2.70849 24.12625,-6.16538 32.91892,-8.12664 16.3724,-3.65198 32.81721,-6.91855 49.25022,-10.22883 10.55677,-2.17607 21.18787,-3.8583 31.81408,-5.56504 4.66792,-0.74972 10.74583,-2.25196 14.21647,-1.36969 0.51474,2.61666 -1.14517,9.40003 -2.30195,13.80976 -1.96122,6.93161 -3.678,11.83013 -5.95984,18.70532 -7.01391,20.72555 -15.20405,40.97149 -24.4011,60.65986 -4.54259,9.2272 -14.3568,28.52945 -18.65667,37.88823 l 45.95136,-26.81015 c 3.84488,-9.23229 13.40958,-28.29886 17.65105,-37.32909 8.85233,-19.97098 17.16301,-40.24504 24.24503,-61.04123 2.13657,-6.26011 4.43865,-12.85126 6.40219,-19.18798 1.60906,-5.19298 5.10578,-13.25681 2.16421,-18.82572 -0.55351,-1.04788 -1.71264,-1.54343 -2.56883,-2.31511 -1.08497,-0.0779 -3.2551,0.79739 -3.2551,-0.28732 z"
       inkscape:label="swirl-path-100-mod-01"
       sodipodi:nodetypes="ccsscscsssccsscacaccscscsccscsccscscscsccccscsccscsccccccccccccccscsccsscsccccsscscscsccscscsscscscsccssccccscsscsscscssccsscsccccccccsscss" />
    <text
       xml:space="preserve"
       style="font-style:italic;font-variant:normal;font-weight:bold;font-stretch:normal;font-size:846.667px;line-height:1.25;font-family:sans-serif;-inkscape-font-specification:'sans-serif, Bold Italic';font-variant-ligatures:normal;font-variant-caps:normal;font-variant-numeric:normal;font-variant-east-asian:normal;display:inline;fill:#000000;fill-opacity:1;stroke:none;stroke-width:0.264583"
       x="120.00942"
       y="652.32373"
       id="text194"
       inkscape:label="i-text"><tspan
         sodipodi:role="line"
         id="tspan192"
         style="font-style:italic;font-variant:normal;font-weight:bold;font-stretch:normal;font-size:846.667px;font-family:sans-serif;-inkscape-font-specification:'sans-serif, Bold Italic';font-variant-ligatures:normal;font-variant-caps:normal;font-variant-numeric:normal;font-variant-east-asian:normal;stroke-width:0.264583"
         x="0"
         y="0">I</tspan></text>
    <text
       xml:space="preserve"
       style="font-style:italic;font-variant:normal;font-weight:normal;font-stretch:normal;font-size:846.667px;line-height:1.25;font-family:sans-serif;-inkscape-font-specification:'sans-serif, Italic';font-variant-ligatures:normal;font-variant-caps:normal;font-variant-numeric:normal;font-variant-east-asian:normal;display:inline;fill:#000000;fill-opacity:1;stroke:none;stroke-width:0.264583"
       x="472.48474"
       y="937.52734"
       id="text248"
       inkscape:label="s-text"><tspan
         sodipodi:role="line"
         id="tspan246"
         style="font-style:italic;font-variant:normal;font-weight:normal;font-stretch:normal;font-size:846.667px;font-family:sans-serif;-inkscape-font-specification:'sans-serif, Italic';font-variant-ligatures:normal;font-variant-caps:normal;font-variant-numeric:normal;font-variant-east-asian:normal;stroke-width:0.264583"
         x="0"
         y="0">S</tspan></text>
  </g>
</svg>
